<?xml version="1.0" encoding="UTF-8" standalone="no"?>
<!-- Created with Inkscape (http://www.inkscape.org/) -->

<svg
   xmlns:dc="http://purl.org/dc/elements/1.1/"
   xmlns:cc="http://creativecommons.org/ns#"
   xmlns:rdf="http://www.w3.org/1999/02/22-rdf-syntax-ns#"
   xmlns:svg="http://www.w3.org/2000/svg"
   xmlns="http://www.w3.org/2000/svg"
   xmlns:sodipodi="http://sodipodi.sourceforge.net/DTD/sodipodi-0.dtd"
   xmlns:inkscape="http://www.inkscape.org/namespaces/inkscape"
   width="426.38437"
   height="66.373505"
   viewBox="0 0 426.38437 66.373505"
   version="1.1"
   id="SVGRoot"
   inkscape:version="0.92.3 (2405546, 2018-03-11)"
   sodipodi:docname="bicisenRenta.svg">
  <sodipodi:namedview
     id="base"
     pagecolor="#ffffff"
     bordercolor="#666666"
     borderopacity="1.0"
     inkscape:pageopacity="0.0"
     inkscape:pageshadow="2"
     inkscape:zoom="1"
     inkscape:cx="201.4"
     inkscape:cy="148.62907"
     inkscape:document-units="px"
     inkscape:current-layer="layer1"
     showgrid="false"
     inkscape:window-width="1920"
     inkscape:window-height="1051"
     inkscape:window-x="1366"
     inkscape:window-y="0"
     inkscape:window-maximized="1"
     fit-margin-top="0"
     fit-margin-left="0"
     fit-margin-right="0"
     fit-margin-bottom="0" />
  <defs
     id="defs2699" />
  <metadata
     id="metadata2702">
    <rdf:RDF>
      <cc:Work
         rdf:about="">
        <dc:format>image/svg+xml</dc:format>
        <dc:type
           rdf:resource="http://purl.org/dc/dcmitype/StillImage" />
        <dc:title></dc:title>
      </cc:Work>
    </rdf:RDF>
  </metadata>
  <g
     id="layer1"
     inkscape:groupmode="layer"
     inkscape:label="Capa 1"
     transform="translate(81.4,-42.255561)">
    <text
       xml:space="preserve"
       style="font-style:normal;font-variant:normal;font-weight:normal;font-stretch:normal;font-size:48px;line-height:1.25;font-family:Nunito;-inkscape-font-specification:Nunito;letter-spacing:0px;word-spacing:0px;fill:#000000;fill-opacity:1;stroke:none"
       x="-85"
       y="92"
       id="text3268"><tspan
         sodipodi:role="line"
         id="tspan3266"
         x="-85"
         y="92"><tspan
   style="font-style:italic;font-variant:normal;font-weight:bold;font-stretch:normal;font-family:Ubuntu;-inkscape-font-specification:'Ubuntu Bold Italic';fill:#ffffff"
   id="tspan3281">BICISEN</tspan>     <tspan
   style="font-style:normal;font-variant:normal;font-weight:normal;font-stretch:normal;font-family:'Cherry Cream Soda';-inkscape-font-specification:'Cherry Cream Soda';fill:#ffe6d5"
   id="tspan3287">RENTA</tspan></tspan></text>
    <path
       id="path3270"
       d="m 115.23893,51.3018 a 5.25,5.25 0 1 0 -7.42268,-0.1698 5.25,5.25 0 0 0 7.42268,0.1698 z m 8.8253,9.87189 a 3.4890625,3.4890625 0 0 0 2.11062,-0.9574 l 5.06166,-4.83525 a 3.5000025,3.5000025 0 0 0 -4.83526,-5.06165 l -4.17428,3.98757 -9.93907,0.8727 a 3.4934375,3.4934375 0 0 0 -3.17621,3.13701 l -1.60501,16.05417 a 3.5,3.5 0 0 0 4.09063,3.79448 l 10.58292,-1.86287 8.37708,8.76931 a 3.5,3.5 0 0 0 5.06165,-4.83525 L 125.94845,70.1132 a 3.5,3.5 0 0 0 -3.13817,-1.02873 l -5.35403,0.94431 0.8354,-8.34892 z m 12.12073,-5.67945 a 14,14 0 1 0 19.79381,0.4528 14,14 0 0 0 -19.79381,-0.4528 z m 14.50576,15.18496 a 7,7 0 1 1 0.2264,-9.89691 7,7 0 0 1 -0.2264,9.89691 z m -44.87568,13.82656 a 14,14 0 1 0 19.79381,0.4528 14,14 0 0 0 -19.79381,-0.4528 z m 14.50576,15.18496 a 7,7 0 1 1 0.2264,-9.89691 7,7 0 0 1 -0.2264,9.89691 z"
       inkscape:connector-curvature="0"
       style="fill:#631906;fill-opacity:1;stroke-width:0.109375"
       inkscape:transform-center-x="-90"
       inkscape:transform-center-y="-75" />
  </g>
</svg>
